<svg id="visual" viewBox="0 0 900 100" width="900" height="100" xmlns="http://www.w3.org/2000/svg" xmlns:xlink="http://www.w3.org/1999/xlink" version="1.1"><rect x="0" y="0" width="900" height="100" fill="#1C3AAA"></rect><path d="M0 73L37.5 74.7C75 76.3 150 79.7 225 81.5C300 83.3 375 83.7 450 83.5C525 83.3 600 82.7 675 78.8C750 75 825 68 862.5 64.5L900 61L900 101L862.5 101C825 101 750 101 675 101C600 101 525 101 450 101C375 101 300 101 225 101C150 101 75 101 37.5 101L0 101Z" fill="#FFFFFF" stroke-linecap="round" stroke-linejoin="miter"></path></svg>